<svg id="Layer_1" data-name="Layer 1" xmlns="http://www.w3.org/2000/svg" viewBox="0 0 743 323"><defs><style>.cls-1{font-size:43.21px;font-family:BookmanOldStyle-Bold, Bookman Old Style;}.cls-1,.cls-2,.cls-8{fill:#ed2224;}.cls-1,.cls-2{font-weight:700;}.cls-2{font-size:34.7px;font-family:Cambria-BoldItalic, Cambria;font-style:italic;}.cls-3{letter-spacing:-0.01em;}.cls-4{letter-spacing:-0.01em;}.cls-5{letter-spacing:0.01em;}.cls-6{letter-spacing:0em;}.cls-7{letter-spacing:0em;}</style></defs><text class="cls-1" transform="translate(250.12 142.58) scale(1.08 1)">TARGET BUSINESS</text><text class="cls-1" transform="translate(255.47 182) scale(1.11 1)">SOLUTIONS</text><text class="cls-2" transform="translate(250.16 223.31) scale(1.23 1)">“B<tspan class="cls-3" x="35.53" y="0">e</tspan><tspan x="52.62" y="0">st </tspan><tspan class="cls-4" x="88.23" y="0">t</tspan><tspan x="100.62" y="0">o Se</tspan><tspan class="cls-5" x="161.67" y="0">r</tspan><tspan class="cls-6" x="178" y="0">v</tspan><tspan x="195.18" y="0">e and So</tspan><tspan class="cls-7" x="323.73" y="0">lv</tspan><tspan x="351.04" y="0">e”</tspan></text><polygon class="cls-8" points="252.63 237.39 256.33 239.74 157.54 284.84 54.39 227.42 54.39 113.12 157.47 49.84 256.33 94.86 252.78 97.45 157.76 54.17 58.08 115.32 58.08 225.14 157.69 280.58 252.63 237.39"/><path class="cls-8" d="M157.52,285.23l-.15-.08L54,227.63V112.92l.17-.1L157.44,49.44,257,94.79l-4.2,3.06-.18-.08-94.85-43.2-99.35,61V224.94l99.26,55.25,95-43.2,4.4,2.8-.58.27Zm-102.78-58,102.82,57.23,98-44.76-3-1.91L157.67,281l-.15-.09L57.73,225.34V115.13l.17-.11,99.84-61.24,95,43.27,2.9-2.12L157.49,50.24,54.74,113.31Z"/><polygon class="cls-8" points="277.26 252.38 157.25 307.17 34.05 237.24 34.05 98.59 157.02 24.4 275.04 79.72 261.14 89.99 157.84 41.52 48.84 107.34 48.84 228.26 157.98 290.2 262.54 242.49 277.11 251.92 277.26 252.38"/><path class="cls-8" d="M157.23,307.56l-.16-.09-123.37-70v-139l.17-.1L157,24l.17.08L275.72,79.65,261.18,90.4,157.86,41.91,49.19,107.54V228.06L158,289.81l104.57-47.72,14.84,9.61.28.87-.28.13ZM34.4,237l122.86,69.74,119.57-54.59,0,0-14.3-9.26L158,290.59l-.16-.09-109.32-62V107.15l.17-.11L157.82,41.12l.17.08L261.1,89.59l13.26-9.8L157,24.79,34.4,98.79Z"/><path class="cls-8" d="M169.92,133.23a24.77,24.77,0,1,1,24.45-24.77A24.64,24.64,0,0,1,169.92,133.23Zm0-45.34a20.58,20.58,0,1,0,20.21,20.57A20.41,20.41,0,0,0,169.92,87.89Z"/><path class="cls-8" d="M169.73,97.87v6.56l.47.19,2.89,1.17q5.39,2.25,5.39,7.33a6.91,6.91,0,0,1-2.31,5.36,8.48,8.48,0,0,1-5.92,2.09h-.52v2.69h-1.24v-2.69q-7.49-.78-7.49-6.45a13.65,13.65,0,0,1,.14-1.64l3.26-.83a11.13,11.13,0,0,0-.39,2.61c0,2.71,1.49,4.18,4.48,4.43v-7.37q-7.28-2.41-7.28-8,0-6.7,7.28-7.33V93.87h1.24v2q7.77,0,7.76,7l-3.22.66a5.81,5.81,0,0,0,.24-1.55Q174.51,98.15,169.73,97.87Zm-1.24.1-.36,0c-1.75,0-2.62.94-2.62,2.83q0,2,3,3.21Zm1.24,20.72q3.33-.51,3.33-3.28,0-2.35-3.33-3.62Z"/><polygon class="cls-8" points="78.03 165.36 78.03 160.1 128.19 119.38 169.95 144.15 218.04 111.08 220.36 113.88 170.12 148.44 128.57 123.79 78.03 165.36"/><path class="cls-8" d="M77.67,166.11v-6.18l50.49-41,41.78,24.78,48.16-33.13,2.78,3.34-50.75,34.9-41.52-24.63Zm.71-5.85v4.36l50.16-41.25L170.11,148l49.74-34.21L218,111.55l-48,33-41.74-24.76Z"/><path class="cls-8" d="M77.85,165.73V160l.06,0,50.27-40.79L170,144l48.12-33.1,2.55,3.06-50.49,34.74L128.59,124Zm.35-5.55V165l50.36-41.41.11.06,41.44,24.59,50-34.39L218,111.32l-48,33L128.21,119.6Z"/><path class="cls-8" d="M77.5,166.48v-6.63l.19-.16,50.46-40.95,41.78,24.79,48.21-33.15,3,3.6-51,35.08-41.52-24.63Zm1.06-6.14v3.9l50-41.09,41.58,24.66,49.49-34-1.65-2-48,33L128.24,120Z"/><path class="cls-8" d="M224.47,122.28,209,105.58l27.11-4.94Zm-7.15-14,6.23,6.74,4.71-8.73Z"/><path class="cls-8" d="M224.55,122.88l-16.21-17.52,28.46-5.19Zm-14.83-17.07,14.67,15.87,11.09-20.56Zm13.91,9.86-7-7.57,12.29-2.24ZM218,108.56l5.46,5.91,4.14-7.66Z"/><path class="cls-8" d="M142.37,231.46H109.54V148l21-16.17,11.82,6.82Zm-28.59-4.18h24.35V141.09l-7.24-4.18-17.11,13.17Z"/><path class="cls-8" d="M180.76,231.46H145.48V140.13l26.16,14.81,9.12-5.65Zm-31-4.18h26.79V156.86l-4.77,3-22-12.46Z"/><path class="cls-8" d="M219.14,231.46H184.27V146.87l34.87-23.63Zm-30.62-4.18H214.9V131.19l-26.38,17.89Z"/><path class="cls-8" d="M107.67,231.46h-27l-.41-59,27-22.62ZM84.9,227.28h18.51l-.36-68.46L84.53,174.34Z"/><rect class="cls-8" x="82.8" y="223.51" width="135.49" height="8.38"/></svg>