<svg id="Layer_1" data-name="Layer 1" xmlns="http://www.w3.org/2000/svg" viewBox="0 0 1280 594"><defs><style>.cls-1,.cls-11,.cls-2,.cls-3{fill:#010101;}.cls-1,.cls-10,.cls-11,.cls-12{stroke:#010101;stroke-miterlimit:10;}.cls-2{font-size:61.89px;font-family:BookmanOldStyle-Bold, Bookman Old Style;}.cls-2,.cls-3{font-weight:700;}.cls-3{font-size:49.69px;font-family:Cambria-BoldItalic, Cambria;font-style:italic;}.cls-4{letter-spacing:-0.01em;}.cls-5{letter-spacing:-0.01em;}.cls-6{letter-spacing:0.01em;}.cls-7{letter-spacing:0em;}.cls-8{letter-spacing:0em;}.cls-9{letter-spacing:0em;}.cls-10,.cls-12{fill:none;}.cls-10{stroke-width:6px;}.cls-11{font-size:51.19px;font-family:BritannicBold, Britannic Bold;}.cls-12{stroke-width:12px;}</style></defs><polygon class="cls-1" points="458.42 400.05 463.65 403.43 323.89 468.02 177.97 385.78 177.97 222.07 323.79 131.44 463.65 195.93 458.63 199.63 324.21 137.65 183.19 225.23 183.19 382.51 324.1 461.92 458.42 400.05"/><polygon class="cls-1" points="493.26 421.53 323.48 500 149.2 399.84 149.2 201.26 323.16 95 490.12 174.23 470.45 188.95 324.31 119.52 170.12 213.8 170.12 386.98 324.52 475.7 472.44 407.36 493.05 420.87 493.26 421.53"/><text class="cls-2" transform="translate(454.86 264.27) scale(1.07 1)">TARGET BUSINESS</text><text class="cls-2" transform="translate(462.43 320.73) scale(1.1 1)">SOLUTIONS</text><text class="cls-3" transform="translate(454.93 379.9) scale(1.21 1)">“B<tspan class="cls-4" x="50.88" y="0">e</tspan><tspan x="75.36" y="0">st </tspan><tspan class="cls-5" x="126.37" y="0">t</tspan><tspan x="144.11" y="0">o Se</tspan><tspan class="cls-6" x="231.55" y="0">r</tspan><tspan class="cls-7" x="254.94" y="0">v</tspan><tspan x="279.55" y="0">e and So</tspan><tspan class="cls-8" x="463.67" y="0">lv</tspan><tspan class="cls-9" x="502.78" y="0">e”</tspan></text><ellipse class="cls-10" cx="341.41" cy="215.41" rx="31.58" ry="32.47"/><text class="cls-11" transform="translate(326.01 232.17) scale(0.98 1)">$</text><polygon class="cls-1" points="211.41 296.9 211.41 289.36 282.38 231.04 341.45 266.52 409.48 219.15 412.77 223.16 341.69 272.66 282.92 237.36 211.41 296.9"/><path class="cls-1" d="M211.16,297.43v-8.19l.09-.08,71.11-58.42,59.08,35.48,68.09-47.4,3.6,4.39L341.7,273l-58.76-35.29Zm.5-8v6.89l71.23-59.31.16.1,58.63,35.21,70.72-49.25-3-3.62-68,47.33L282.4,231.35Z"/><path class="cls-1" d="M418.58,235.19l-21.84-23.91,38.35-7.08Zm-10.12-20,8.82,9.65,6.66-12.51Z"/><polygon class="cls-10" points="258.99 273.54 285.95 252.53 299.43 260.41 299.43 388.57 258.99 388.57 258.99 273.54"/><polygon class="cls-10" points="353.74 279.3 343.92 285.47 309.83 265.93 309.83 388.57 353.74 388.57 353.74 279.3"/><polygon class="cls-10" points="364.71 271.99 408.04 242.26 408.04 388.57 364.71 388.57 364.71 271.99"/><polygon class="cls-10" points="217.61 308.38 249.78 281.07 250.33 388.57 218.16 388.57 217.61 308.38"/><line class="cls-12" x1="218.16" y1="386.18" x2="409.83" y2="386.18"/></svg>